<svg width="24" height="24" viewBox="0 0 24 24" fill="none" xmlns="http://www.w3.org/2000/svg">
<path fill-rule="evenodd" clip-rule="evenodd" d="M6.14786 0H14.1719L20.9724 7.08846V20.8756C20.9724 22.6027 19.5752 24 17.854 24H6.14786C4.42073 24 3.02344 22.6027 3.02344 20.8756V3.12443C3.02341 1.3973 4.4207 0 6.14786 0V0Z" fill="#084074"/>
<path opacity="0.302" fill-rule="evenodd" clip-rule="evenodd" d="M14.1719 0V7.03449H20.9785L14.1719 0Z" fill="white"/>
<path d="M6.5 17.9072V13.5234H8.36507C8.82685 13.5234 9.19267 13.6494 9.46853 13.9072C9.74439 14.1591 9.88233 14.501 9.88233 14.9267C9.88233 15.3525 9.74439 15.6944 9.46853 15.9462C9.19267 16.2041 8.82685 16.33 8.36507 16.33H7.62144V17.9072H6.5ZM7.62144 15.3765H8.23914C8.40704 15.3765 8.53898 15.3405 8.62895 15.2566C8.71889 15.1786 8.7669 15.0707 8.7669 14.9268C8.7669 14.7828 8.71892 14.6749 8.62895 14.5969C8.53901 14.513 8.40707 14.477 8.23914 14.477H7.62144V15.3765ZM10.3441 17.9072V13.5234H11.8973C12.2031 13.5234 12.491 13.5654 12.7609 13.6554C13.0307 13.7453 13.2766 13.8713 13.4925 14.0452C13.7084 14.2131 13.8823 14.441 14.0082 14.7288C14.1282 15.0167 14.1942 15.3465 14.1942 15.7183C14.1942 16.0842 14.1282 16.414 14.0082 16.7018C13.8823 16.9897 13.7084 17.2176 13.4925 17.3855C13.2766 17.5594 13.0307 17.6853 12.7609 17.7753C12.491 17.8652 12.2031 17.9072 11.8973 17.9072H10.3441ZM11.4415 16.9537H11.7654C11.9393 16.9537 12.1012 16.9358 12.2511 16.8938C12.395 16.8518 12.533 16.7858 12.6649 16.6959C12.7909 16.6059 12.8928 16.48 12.9648 16.3121C13.0367 16.1442 13.0727 15.9462 13.0727 15.7183C13.0727 15.4845 13.0367 15.2866 12.9648 15.1187C12.8928 14.9508 12.7909 14.8248 12.6649 14.7348C12.533 14.6449 12.3951 14.5789 12.2511 14.537C12.1012 14.495 11.9393 14.477 11.7654 14.477H11.4415V16.9537ZM14.7579 17.9072V13.5234H17.8763V14.477H15.8793V15.1786H17.4745V16.1261H15.8793V17.9072H14.7579Z" fill="white"/>
</svg>
